<svg width="160" height="167" viewBox="0 0 160 167" fill="none" xmlns="http://www.w3.org/2000/svg">
<path d="M10 53.4094C10 51.7046 10.8687 50.1153 12.3085 49.2025C36.3948 33.9299 52.3497 26.2554 83.4758 16.7243C84.4598 16.423 85.5351 16.4355 86.5119 16.7591C116.39 26.6562 132.762 33.9294 157.634 49.2112C159.107 50.1162 160 51.7247 160 53.4535V129.407C160 130.947 159.293 132.403 158.07 133.337C138.519 148.277 122.046 155.613 86.4752 165.837C85.5231 166.111 84.4867 166.095 83.5444 165.789C54.4362 156.341 38.0755 149.196 12.3578 133.311C10.8904 132.404 10 130.798 10 129.074V53.4094Z" fill="#07076E"/>
<path d="M0 37.4094C0 35.7046 0.868745 34.1153 2.30847 33.2025C26.3948 17.9299 42.3497 10.2554 73.4758 0.724294C74.4598 0.422994 75.5351 0.435469 76.5119 0.75905C106.39 10.6562 122.762 17.9294 147.634 33.2112C149.107 34.1162 150 35.7247 150 37.4535V113.407C150 114.947 149.293 116.403 148.07 117.338C128.519 132.277 112.046 139.613 76.4752 149.837C75.5231 150.111 74.4867 150.095 73.5444 149.789C44.4362 140.341 28.0755 133.196 2.35777 117.311C0.890414 116.404 0 114.798 0 113.074V37.4094Z" fill="url(#paint0_radial_324_1021)"/>
<path d="M106.833 81.7227L83.9208 41.7852C83.3475 40.7893 82.5836 39.9162 81.6728 39.2155C80.762 38.5149 79.7221 38.0006 78.6125 37.7018C76.3548 37.0981 73.9504 37.4048 71.9166 38.556L66.9333 41.456C66.8058 41.511 66.6941 41.5969 66.6083 41.706L66.3208 42.0685C66.0192 42.3898 65.8079 42.7851 65.7083 43.2143C63.9314 48.6383 61.7186 53.9097 59.0916 58.9768C57.2454 62.0956 54.7536 64.7835 51.7833 66.8602L44.3083 73.4768C42.7931 74.8287 41.7847 76.6573 41.45 78.6602C41.2371 80.0231 41.3209 81.416 41.6958 82.7435C40.6708 83.3102 39.7791 84.0935 39.0833 85.0352C38.3784 85.9579 37.8643 87.0117 37.5708 88.1352C37.3498 89.2816 37.3498 90.4596 37.5708 91.606C37.8883 93.91 39.0934 95.9988 40.9291 97.4268C41.8458 98.1268 42.9 98.6352 44.025 98.9185C44.7583 99.1157 45.5069 99.2102 46.2708 99.2018C46.6764 99.2435 47.0847 99.2435 47.4958 99.2018C48.6291 99.0643 49.7166 98.6727 50.6791 98.0602C51.5791 99.0727 52.7166 99.8435 53.9875 100.31C54.975 100.698 56.0291 100.894 57.0916 100.877C57.6722 100.891 58.2444 100.823 58.8083 100.673L65.4625 112.56C66.257 113.892 67.3807 114.997 68.7255 115.769C70.0703 116.541 71.5911 116.954 73.1416 116.968C75.08 116.945 76.9579 116.29 78.4909 115.104C80.0239 113.918 81.1285 112.264 81.6375 110.394C82.2135 108.134 81.9066 105.739 80.7791 103.698L75.7958 95.0393C77.1402 94.7393 78.5014 94.5755 79.8791 94.5477C85.6916 94.7935 91.4708 95.531 97.1541 96.756H98.5833L99.2375 96.4643L99.85 96.0977L104.221 93.5685C106.229 92.406 107.7 90.4977 108.304 88.2602C108.682 85.9727 108.155 83.6277 106.833 81.7227ZM57.2958 94.8768C56.7146 95.0811 56.0812 95.0811 55.5 94.8768C54.9252 94.6724 54.4451 94.2649 54.15 93.731L47.9416 82.8685L47.5375 82.1727C47.2232 81.6228 47.1083 80.9812 47.2123 80.3564C47.3163 79.7317 47.6328 79.1619 48.1083 78.7435L52.7208 74.6602L54.4375 77.681L63.3 93.2018L57.2958 94.8768ZM101.771 86.7102C101.57 87.4049 101.119 88.0003 100.504 88.381L98.2166 89.6893L72.65 45.131L74.9791 43.7852C75.2772 43.6077 75.6089 43.4942 75.9533 43.4518C76.2976 43.4095 76.6469 43.4393 76.9791 43.5393C77.3194 43.6241 77.6392 43.7761 77.9198 43.9865C78.2003 44.1969 78.4358 44.4614 78.6125 44.7643L101.525 84.6643C101.729 85.0053 101.856 85.3863 101.899 85.7811C101.941 86.176 101.897 86.5754 101.771 86.9518V86.7102ZM100.708 62.4477C100.171 62.4568 99.6419 62.3217 99.175 62.0564C98.7081 61.791 98.3211 61.4053 98.0541 60.9393C97.6777 60.2473 97.5824 59.4369 97.788 58.6764C97.9936 57.916 98.4844 57.264 99.1583 56.856L109.367 50.931C110.056 50.5439 110.87 50.4427 111.634 50.6491C112.397 50.8556 113.049 51.3532 113.45 52.0352C113.826 52.7272 113.922 53.5376 113.716 54.2981C113.51 55.0586 113.02 55.7105 112.346 56.1185L102.137 62.0393C101.704 62.2966 101.212 62.4373 100.708 62.4477ZM119.533 76.906H107.733C107.331 76.906 106.933 76.8268 106.561 76.6729C106.19 76.519 105.852 76.2934 105.568 76.009C105.283 75.7246 105.058 75.387 104.904 75.0155C104.75 74.6439 104.671 74.2457 104.671 73.8435C104.671 73.4413 104.75 73.0431 104.904 72.6715C105.058 72.3 105.283 71.9624 105.568 71.678C105.852 71.3936 106.19 71.168 106.561 71.0141C106.933 70.8602 107.331 70.781 107.733 70.781H119.533C120.346 70.781 121.124 71.1037 121.699 71.678C122.273 72.2523 122.596 73.0313 122.596 73.8435C122.596 74.6557 122.273 75.4347 121.699 76.009C121.124 76.5834 120.346 76.906 119.533 76.906ZM91.0708 47.8685C90.5388 47.8729 90.0158 47.7317 89.5583 47.4602C88.8708 47.065 88.3659 46.4157 88.1524 45.652C87.9388 44.8883 88.0337 44.0713 88.4166 43.3768L94.2958 33.0852C94.7188 32.4155 95.3845 31.9355 96.1534 31.7457C96.9224 31.5558 97.7349 31.6708 98.421 32.0666C99.1071 32.4624 99.6134 33.1083 99.8339 33.869C100.054 34.6298 99.9721 35.4463 99.6041 36.1477L93.725 46.3977C93.45 46.8537 93.0602 47.2296 92.5944 47.4877C92.1286 47.7458 91.6032 47.8771 91.0708 47.8685Z" fill="#FFF4F4"/>
<defs>
<radialGradient id="paint0_radial_324_1021" cx="0" cy="0" r="1" gradientUnits="userSpaceOnUse" gradientTransform="translate(75 75.2598) rotate(90) scale(81.1728 75)">
<stop stop-color="#24247D"/>
<stop offset="1" stop-color="#4545A4"/>
</radialGradient>
</defs>
</svg>
