<svg width="160" height="167" viewBox="0 0 160 167" fill="none" xmlns="http://www.w3.org/2000/svg">
<path d="M10 54.5038C10 52.1171 11.2208 49.8879 13.2389 48.6138C36.6553 33.8288 52.5426 26.2322 82.8729 16.9093C84.25 16.486 85.7431 16.5035 87.1103 16.9575C116.229 26.6273 132.505 33.8431 156.68 48.6266C158.745 49.8893 160 52.1453 160 54.5656V128.432C160 130.587 159.008 132.631 157.289 133.931C138.183 148.392 121.755 155.668 87.0592 165.669C85.7265 166.053 84.2869 166.031 82.968 165.601C54.5767 156.362 38.3129 149.269 13.3065 133.895C11.2495 132.631 10 130.379 10 127.965V54.5038Z" fill="#07076E"/>
<path d="M0 38.5038C0 36.1171 1.22081 33.8879 3.23888 32.6138C26.6553 17.8288 42.5426 10.2322 72.8729 0.909272C74.25 0.485977 75.7431 0.503464 77.1103 0.957512C106.229 10.6273 122.505 17.8431 146.68 32.6266C148.745 33.8893 150 36.1453 150 38.5656V112.432C150 114.587 149.008 116.631 147.289 117.931C128.183 132.392 111.755 139.668 77.0592 149.669C75.7265 150.053 74.2869 150.031 72.968 149.601C44.5767 140.362 28.3129 133.269 3.30647 117.895C1.24952 116.631 0 114.379 0 111.965V38.5038Z" fill="url(#paint0_radial_324_1168)"/>
<path d="M75.9375 123.135C74.6979 123.135 73.6596 122.715 72.8225 121.875C71.9854 121.035 71.5654 119.996 71.5625 118.76C71.5625 118.249 71.6719 117.72 71.8906 117.172C72.1094 116.623 72.4375 116.132 72.875 115.697L93.1094 95.4629L89.9375 92.291L69.8125 112.525C69.375 112.963 68.901 113.291 68.3906 113.51C67.8802 113.729 67.3333 113.838 66.75 113.838C65.5104 113.838 64.4721 113.419 63.635 112.582C62.7979 111.745 62.3779 110.705 62.375 109.463C62.375 108.734 62.4844 108.131 62.7031 107.656C62.9219 107.181 63.2135 106.762 63.5781 106.4L83.8125 86.166L80.75 83.1035L60.5156 103.229C60.0781 103.666 59.6042 103.994 59.0938 104.213C58.5833 104.432 58 104.541 57.3438 104.541C56.1771 104.541 55.1562 104.104 54.2812 103.229C53.4062 102.354 52.9688 101.333 52.9688 100.166C52.9688 99.5827 53.0781 99.0358 53.2969 98.5254C53.5156 98.015 53.8438 97.541 54.2812 97.1035L74.5156 76.8692L71.3438 73.8067L51.2188 94.041C50.8542 94.4056 50.4167 94.6973 49.9062 94.916C49.3958 95.1348 48.776 95.2442 48.0469 95.2442C46.8073 95.2442 45.7675 94.8242 44.9275 93.9842C44.0875 93.1442 43.669 92.1058 43.6719 90.8692C43.6719 90.2858 43.7813 89.7389 44 89.2285C44.2188 88.7181 44.5469 88.2442 44.9844 87.8067L69.375 63.416L85.7812 79.9317C86.5833 80.7337 87.5312 81.3725 88.625 81.8479C89.7188 82.3233 90.8125 82.5596 91.9062 82.5567C94.2396 82.5567 96.2812 81.7371 98.0312 80.0979C99.7812 78.4587 100.656 76.3617 100.656 73.8067C100.656 72.7858 100.474 71.7285 100.109 70.6348C99.7448 69.541 99.0885 68.5202 98.1406 67.5723L78.5625 47.9942C79.8021 46.8275 81.1875 45.935 82.7188 45.3167C84.25 44.6983 85.7812 44.3877 87.3125 44.3848C89.2083 44.3848 90.9583 44.6954 92.5625 45.3167C94.1667 45.9379 95.625 46.9033 96.9375 48.2129L115.422 66.8067C116.734 68.1192 117.701 69.5775 118.323 71.1817C118.944 72.7858 119.253 74.6452 119.25 76.7598C119.25 78.2181 118.922 79.6954 118.266 81.1917C117.609 82.6879 116.661 84.0544 115.422 85.291L79 121.822C78.4167 122.406 77.9062 122.77 77.4688 122.916C77.0312 123.062 76.5208 123.135 75.9375 123.135ZM38.4219 88.1348L35.5781 85.291C34.3385 84.1244 33.3906 82.7389 32.7344 81.1348C32.0781 79.5306 31.75 77.8535 31.75 76.1035C31.75 74.2077 32.1146 72.4577 32.8438 70.8535C33.5729 69.2494 34.4844 67.9004 35.5781 66.8067L54.0625 48.2129C55.2292 47.0462 56.6146 46.1158 58.2188 45.4217C59.8229 44.7275 61.3906 44.3819 62.9219 44.3848C64.8906 44.3848 66.6406 44.659 68.1719 45.2073C69.7031 45.7556 71.1979 46.7575 72.6562 48.2129L95.0781 70.6348C95.5156 71.0723 95.8438 71.5462 96.0625 72.0567C96.2812 72.5671 96.3906 73.114 96.3906 73.6973C96.3906 74.864 95.9531 75.8848 95.0781 76.7598C94.2031 77.6348 93.1823 78.0723 92.0156 78.0723C91.3594 78.0723 90.8125 77.9819 90.375 77.801C89.9375 77.6202 89.4635 77.2731 88.9531 76.7598L69.2656 57.291L38.4219 88.1348Z" fill="#FFF4F4"/>
<defs>
<radialGradient id="paint0_radial_324_1168" cx="0" cy="0" r="1" gradientUnits="userSpaceOnUse" gradientTransform="translate(75 75.2598) rotate(90) scale(81.1728 75)">
<stop stop-color="#24247D"/>
<stop offset="0.9999" stop-color="#4545A4"/>
</radialGradient>
</defs>
</svg>
