<svg width="160" height="167" viewBox="0 0 160 167" fill="none" xmlns="http://www.w3.org/2000/svg">
<path d="M10 53.4094C10 51.7046 10.8687 50.1153 12.3085 49.2025C36.3948 33.9299 52.3497 26.2554 83.4758 16.7243C84.4598 16.423 85.5351 16.4355 86.5119 16.7591C116.39 26.6562 132.762 33.9294 157.634 49.2112C159.107 50.1162 160 51.7247 160 53.4535V129.407C160 130.947 159.293 132.403 158.07 133.337C138.519 148.277 122.046 155.613 86.4752 165.837C85.5231 166.111 84.4867 166.095 83.5444 165.789C54.4362 156.341 38.0755 149.196 12.3578 133.311C10.8904 132.404 10 130.798 10 129.074V53.4094Z" fill="#07076E"/>
<path d="M0 37.4094C0 35.7046 0.868745 34.1153 2.30847 33.2025C26.3948 17.9299 42.3497 10.2554 73.4758 0.724294C74.4598 0.422994 75.5351 0.435469 76.5119 0.75905C106.39 10.6562 122.762 17.9294 147.634 33.2112C149.107 34.1162 150 35.7247 150 37.4535V113.407C150 114.947 149.293 116.403 148.07 117.337C128.519 132.277 112.046 139.613 76.4752 149.837C75.5231 150.111 74.4867 150.095 73.5444 149.789C44.4362 140.341 28.0755 133.196 2.35777 117.311C0.890414 116.404 0 114.798 0 113.074V37.4094Z" fill="url(#paint0_radial_324_1051)"/>
<path d="M32 82.8571C32 92.9733 36.3196 102.675 44.0086 109.828C51.6976 116.981 62.1261 121 73 121C73 99.8095 54.6411 82.8571 32 82.8571ZM73 51.0714C76.0205 51.0714 78.9173 52.1877 81.0532 54.1747C83.189 56.1617 84.3889 58.8566 84.3889 61.6667C84.3889 64.4767 83.189 67.1716 81.0532 69.1586C78.9173 71.1456 76.0205 72.2619 73 72.2619C69.9795 72.2619 67.0827 71.1456 64.9468 69.1586C62.811 67.1716 61.6111 64.4767 61.6111 61.6667C61.6111 58.8566 62.811 56.1617 64.9468 54.1747C67.0827 52.1877 69.9795 51.0714 73 51.0714ZM43.8444 71.2024C43.8444 74.0124 45.0443 76.7074 47.1802 78.6943C49.316 80.6813 52.2128 81.7976 55.2333 81.7976C57.6478 81.7976 59.88 81.0771 61.6111 79.9329V80.7381C61.6111 83.5481 62.811 86.2431 64.9468 88.2301C67.0827 90.2171 69.9795 91.3333 73 91.3333C76.0205 91.3333 78.9173 90.2171 81.0532 88.2301C83.189 86.2431 84.3889 83.5481 84.3889 80.7381V79.9329C86.12 81.0771 88.3522 81.7976 90.7667 81.7976C93.7872 81.7976 96.684 80.6813 98.8198 78.6943C100.956 76.7074 102.156 74.0124 102.156 71.2024C102.156 66.9643 99.4678 63.3619 95.6411 61.6667C99.4678 59.9714 102.156 56.3267 102.156 52.131C102.156 49.3209 100.956 46.626 98.8198 44.639C96.684 42.652 93.7872 41.5357 90.7667 41.5357C88.3522 41.5357 86.12 42.2138 84.3889 43.4005V42.5952C84.3889 39.7852 83.189 37.0903 81.0532 35.1033C78.9173 33.1163 76.0205 32 73 32C69.9795 32 67.0827 33.1163 64.9468 35.1033C62.811 37.0903 61.6111 39.7852 61.6111 42.5952V43.4005C59.88 42.2138 57.6478 41.5357 55.2333 41.5357C52.2128 41.5357 49.316 42.652 47.1802 44.639C45.0443 46.626 43.8444 49.3209 43.8444 52.131C43.8444 56.3267 46.5322 59.9714 50.3589 61.6667C46.5322 63.3619 43.8444 66.9643 43.8444 71.2024ZM73 121C83.8739 121 94.3024 116.981 101.991 109.828C109.68 102.675 114 92.9733 114 82.8571C91.2222 82.8571 73 99.8095 73 121Z" fill="#FFF4F4"/>
<defs>
<radialGradient id="paint0_radial_324_1051" cx="0" cy="0" r="1" gradientUnits="userSpaceOnUse" gradientTransform="translate(75 75.2598) rotate(90) scale(81.1728 75)">
<stop stop-color="#24247D"/>
<stop offset="0.9999" stop-color="#4545A4"/>
</radialGradient>
</defs>
</svg>
