<svg width="160" height="167" viewBox="0 0 160 167" fill="none" xmlns="http://www.w3.org/2000/svg">
<path d="M10 54.5038C10 52.1171 11.2208 49.8879 13.2389 48.6138C36.6553 33.8288 52.5426 26.2322 82.8729 16.9093C84.25 16.486 85.7431 16.5035 87.1103 16.9575C116.229 26.6273 132.505 33.8431 156.68 48.6266C158.745 49.8893 160 52.1453 160 54.5656V128.432C160 130.587 159.008 132.631 157.289 133.931C138.183 148.392 121.755 155.668 87.0592 165.669C85.7265 166.053 84.2869 166.031 82.968 165.601C54.5767 156.362 38.3129 149.269 13.3065 133.895C11.2495 132.631 10 130.379 10 127.964V54.5038Z" fill="#07076E"/>
<path d="M0 38.5038C0 36.1171 1.22081 33.8879 3.23888 32.6138C26.6553 17.8288 42.5426 10.2322 72.8729 0.909272C74.25 0.485977 75.7431 0.503464 77.1103 0.957512C106.229 10.6273 122.505 17.8431 146.68 32.6266C148.745 33.8893 150 36.1453 150 38.5656V112.432C150 114.587 149.008 116.631 147.289 117.931C128.183 132.392 111.755 139.668 77.0592 149.669C75.7265 150.053 74.2869 150.031 72.968 149.601C44.5767 140.362 28.3129 133.269 3.30647 117.895C1.24952 116.631 0 114.379 0 111.964V38.5038Z" fill="url(#paint0_radial_324_1179)"/>
<path d="M50.5084 40.6016C50.3853 40.6004 50.2638 40.6305 50.1549 40.6892C50.0461 40.7479 49.9532 40.8332 49.8847 40.9376C49.8163 41.042 49.7743 41.1621 49.7627 41.2871C49.7511 41.4121 49.7702 41.5381 49.8182 41.6538L50.2449 42.6813L57.7967 60.6401C57.848 60.7623 57.93 60.8685 58.0343 60.9481C58.1386 61.0277 58.2617 61.0779 58.3911 61.0936C58.5204 61.1093 58.6516 61.09 58.7713 61.0377C58.8911 60.9853 58.9952 60.9017 59.0733 60.7953L73.0115 41.8127C73.0942 41.7003 73.1446 41.5665 73.157 41.4265C73.1694 41.2865 73.1433 41.1458 73.0816 41.02C73.02 40.8943 72.9252 40.7886 72.808 40.7146C72.6907 40.6407 72.5556 40.6016 72.4178 40.6016H50.5084ZM105.84 45.5332L98.181 63.7701C98.1328 63.8853 98.1134 64.0108 98.1244 64.1354C98.1355 64.2601 98.1767 64.38 98.2444 64.4845C98.312 64.5889 98.404 64.6746 98.5121 64.7339C98.6202 64.7932 98.7411 64.8242 98.8638 64.8242H117.604C117.736 64.8242 117.866 64.7882 117.98 64.7198C118.094 64.6515 118.189 64.5532 118.253 64.4353C118.317 64.3174 118.35 64.184 118.346 64.0491C118.343 63.9142 118.305 63.7826 118.235 63.6679L107.152 45.4329C107.081 45.3155 106.979 45.2203 106.858 45.1577C106.737 45.0951 106.602 45.0675 106.466 45.0779C106.331 45.0882 106.201 45.1361 106.091 45.2164C105.981 45.2966 105.894 45.4062 105.84 45.5332ZM43.6951 45.4404L32.6161 63.6679C32.5463 63.7826 32.5079 63.9142 32.5047 64.0491C32.5015 64.184 32.5338 64.3174 32.5981 64.4353C32.6625 64.5532 32.7566 64.6515 32.8706 64.7198C32.9847 64.7882 33.1147 64.8242 33.247 64.8242H51.9872C52.11 64.824 52.2309 64.7928 52.339 64.7333C52.447 64.6738 52.539 64.5878 52.6064 64.4832C52.6739 64.3785 52.7149 64.2584 52.7257 64.1336C52.7365 64.0089 52.7167 63.8833 52.6682 63.7682L44.994 45.5407C44.9391 45.4169 44.8525 45.3104 44.7434 45.2325C44.6343 45.1546 44.5066 45.108 44.3737 45.0978C44.2409 45.0875 44.1078 45.1139 43.9884 45.1742C43.869 45.2345 43.7677 45.3265 43.6951 45.4404ZM100.894 40.6016H77.6168C77.5497 40.6012 77.4837 40.6199 77.4264 40.6557C77.3692 40.6915 77.3228 40.7429 77.2927 40.8041C77.2626 40.8653 77.2499 40.9339 77.256 41.0022C77.2621 41.0704 77.2869 41.1355 77.3274 41.1901L92.1563 61.3365C92.1941 61.3883 92.2447 61.4289 92.3029 61.4544C92.361 61.4798 92.4248 61.4892 92.4876 61.4815C92.5505 61.4738 92.6102 61.4494 92.6609 61.4106C92.7115 61.3719 92.7512 61.3202 92.776 61.2608L100.584 42.6832L101.215 41.105C101.237 41.0508 101.246 40.9919 101.241 40.9334C101.236 40.8749 101.217 40.8185 101.186 40.769C101.155 40.7195 101.113 40.6785 101.063 40.6493C101.013 40.6201 100.957 40.6038 100.899 40.6016H100.894ZM72.2694 119.325L55.6759 71.3548C55.6272 71.2155 55.5373 71.095 55.4187 71.01C55.3001 70.9249 55.1585 70.8794 55.0135 70.8798H32.6922C32.5629 70.8794 32.4361 70.9161 32.3262 70.9857C32.2164 71.0552 32.1279 71.1548 32.0708 71.2732C32.0138 71.3915 31.9905 71.5238 32.0035 71.655C32.0166 71.7862 32.0656 71.9111 32.1448 72.0153L72.223 124.966C72.3586 125.145 72.5522 125.27 72.7693 125.317C72.9863 125.365 73.2128 125.332 73.4086 125.225C73.6055 125.12 73.7587 124.945 73.8401 124.734C73.9215 124.523 73.9257 124.289 73.8521 124.075L72.2694 119.325ZM118.155 70.8798H95.8338C95.6896 70.8798 95.5489 70.9255 95.4312 71.0106C95.3135 71.0957 95.2247 71.216 95.177 71.3548L76.9563 123.994C76.8797 124.215 76.8829 124.456 76.9652 124.675C77.0475 124.894 77.2035 125.076 77.4053 125.188C77.6071 125.299 77.8412 125.334 78.0659 125.286C78.2905 125.238 78.491 125.11 78.6318 124.925L118.702 72.0153C118.782 71.9111 118.831 71.7862 118.844 71.655C118.857 71.5238 118.834 71.3915 118.776 71.2732C118.719 71.1548 118.631 71.0552 118.521 70.9857C118.411 70.9161 118.284 70.8794 118.155 70.8798ZM76.0174 49.4826L86.408 63.6131C86.4907 63.7255 86.5411 63.8592 86.5535 63.9992C86.5658 64.1393 86.5398 64.28 86.4781 64.4057C86.4165 64.5315 86.3217 64.6372 86.2045 64.7111C86.0872 64.785 85.9521 64.8242 85.8143 64.8242H65.033C64.8952 64.8242 64.7601 64.785 64.6428 64.7111C64.5256 64.6372 64.4308 64.5315 64.3692 64.4057C64.3076 64.28 64.2815 64.1393 64.2938 63.9992C64.3062 63.8592 64.3566 63.7255 64.4393 63.6131L74.8299 49.4826C74.899 49.3886 74.9887 49.3123 75.0917 49.2597C75.1948 49.2072 75.3084 49.1798 75.4237 49.1798C75.5389 49.1798 75.6525 49.2072 75.7556 49.2597C75.8586 49.3123 75.9483 49.3886 76.0174 49.4826ZM74.7186 108.205L62.1571 71.8885C62.1176 71.7744 62.1056 71.6523 62.1219 71.5324C62.1383 71.4126 62.1826 71.2985 62.2511 71.1997C62.3196 71.1009 62.4103 71.0203 62.5157 70.9646C62.621 70.909 62.7379 70.8799 62.8566 70.8798H87.9907C88.1094 70.8799 88.2263 70.909 88.3316 70.9646C88.437 71.0203 88.5277 71.1009 88.5962 71.1997C88.6647 71.2985 88.709 71.4126 88.7254 71.5324C88.7418 71.6523 88.7297 71.7744 88.6903 71.8885L76.1232 108.205C76.0719 108.353 75.9771 108.48 75.8519 108.571C75.7266 108.661 75.577 108.709 75.4237 108.709C75.2703 108.709 75.1207 108.661 74.9954 108.571C74.8702 108.48 74.7754 108.353 74.7241 108.205H74.7186Z" fill="#FFF4F4"/>
<defs>
<radialGradient id="paint0_radial_324_1179" cx="0" cy="0" r="1" gradientUnits="userSpaceOnUse" gradientTransform="translate(75 75.2598) rotate(90) scale(81.1728 75)">
<stop stop-color="#24247D"/>
<stop offset="0.9999" stop-color="#4545A4"/>
</radialGradient>
</defs>
</svg>
