<svg width="1468" height="343" viewBox="0 0 1468 343" fill="none" xmlns="http://www.w3.org/2000/svg">
<path d="M0 0.5L732 25.5L1468 6.5V327.5H0V0.5Z" fill="#D092AA"/>
<path d="M0 194.012C0 194.012 214.485 130.799 397.541 179.319C580.597 227.839 922.961 278.99 1169.21 227.839C1415.46 176.688 1468 206.5 1468 206.5V267.5V329.5L653.5 300L0 329.5V194.012Z" fill="#A85173"/>
<path d="M0 306.5C0 306.5 31 342.087 390.5 239.147C750 136.207 1468 318 1468 318V343H0V306.5Z" fill="#FFF4F4"/>
<path d="M0 0.500106C0 0.500106 256.5 0.50038 367 0.50038C477.5 0.50038 639.622 0.499601 939 0.500274C1238.38 0.500946 1468 0.500381 1468 0.500381V15.5004C1468 15.5004 1472.17 47.9671 1268.65 120.894C1065.12 193.82 638.5 -28.0816 338.5 71.5009C38.5 171.083 0 0.500106 0 0.500106Z" fill="white"/>
</svg>
