<svg width="1439" height="352" viewBox="0 0 1439 352" fill="none" xmlns="http://www.w3.org/2000/svg">
<rect width="1439" height="352" fill="#1E1E1E"/>
<path d="M0 24H1439V361H0V24Z" fill="#D092AA"/>
<path d="M-2 201.945C-2 201.945 209.125 138.86 389.312 187.282C569.5 235.704 906.5 286.751 1148.89 235.704C1391.28 184.656 1440.49 214.652 1440.49 214.652V358H-2V201.945Z" fill="#A85173"/>
<path d="M-2 315.5C-2 315.5 29 351.087 388.5 248.147C748 145.207 1440 330.398 1440 330.398V379.5H-2V315.5Z" fill="#FFF4F4"/>
<path d="M0 0C0 0 212.5 0 338.5 0C464.5 0 549.622 0 840.5 0C1131.38 0 1443 1.5 1443 1.5L1440.17 27.3413C1440.17 27.3413 1472.17 59.9658 1268.65 132.893C1065.12 205.82 638.5 -16.0831 338.5 83.5C38.5 183.083 0 27.3413 0 27.3413V0Z" fill="white"/>
</svg>
