<svg width="1440" height="244" viewBox="0 0 1440 244" fill="none" xmlns="http://www.w3.org/2000/svg">
<path d="M0 53.0002C0 53.0002 284 72.5002 374 72.5002C464 72.5002 600.559 54.2791 748 53.0002C891.417 51.7562 981.5 17.5003 1144.5 17.5002C1307.5 17.5 1440 17.5005 1440 17.5005V124.28C1440 124.28 1123.31 182.845 934.95 124.28C746.593 65.716 533.351 263.424 307.421 241.846C81.4909 220.268 0 105.71 0 105.71V53.0002Z" fill="#A85173"/>
<path d="M0 0C0 0 196.5 0 393 0C589.5 0 924.5 0 1135.5 0C1346.5 0 1440 0 1440 0V54.2727C1440 54.2727 1217.5 154.591 994.5 99.1653C771.5 43.7399 443.209 159.182 315 181.47C66.5 224.669 0 54.2727 0 54.2727V0Z" fill="#FFF4F4"/>
</svg>
