<svg width="1440" height="145" viewBox="0 0 1440 145" fill="none" xmlns="http://www.w3.org/2000/svg">
<path d="M0 49.4301C0 49.4301 289.268 25.3258 441.951 49.4301C519.349 61.649 706.705 99.0253 854.146 97.7464C997.563 96.5024 1101.09 57.1377 1178.54 31.255C1335.61 -21.2368 1440 8.25874 1440 8.25874V113.5C1440 113.5 1062.5 140 866 140C669.5 140 514.5 118.5 281 118.5C47.5 118.5 0 132.5 0 132.5V49.4301Z" fill="#A85173"/>
<path d="M0 105.603C0 105.603 310.5 16.8042 488.5 74.4034C666.5 132.003 998 146.125 1221 74.4043C1444 2.68365 1440 105.603 1440 105.603V144.5C1440 144.5 1270.5 144.5 1027.5 144.5C784.5 144.5 387.5 144.5 260 144.5C132.5 144.5 0 144.5 0 144.5V105.603Z" fill="#FFF4F4"/>
</svg>
