<svg width="1489" height="191" viewBox="0 0 1489 191" fill="none" xmlns="http://www.w3.org/2000/svg">
<path d="M48.2947 49.4301C48.2947 49.4301 337.563 25.3258 490.246 49.4301C567.644 61.649 755 99.0253 902.441 97.7464C1045.86 96.5024 1149.38 57.1377 1226.83 31.255C1383.9 -21.2368 1488.29 8.25874 1488.29 8.25874V186.5C1488.29 186.5 1344.79 186.5 1135.79 186.5C926.795 186.5 411.795 173 183.295 173C-45.205 173 48.2946 173 48.2946 173L48.2947 49.4301Z" fill="#A85173"/>
<path d="M48.2947 105.603C48.2947 105.603 358.795 16.8042 536.795 74.4034C714.795 132.003 1046.29 146.125 1269.29 74.4043C1492.29 2.68365 1488.29 105.603 1488.29 105.603V191C1488.29 191 1331.29 191 1096.29 191C861.295 191 407.295 191 148.295 191C-110.705 191 48.2948 191 48.2948 191L48.2947 105.603Z" fill="#FFF4F4"/>
</svg>
