<svg width="1440" height="1039" viewBox="0 0 1440 1039" fill="none" xmlns="http://www.w3.org/2000/svg">
<path fill-rule="evenodd" clip-rule="evenodd" d="M681.821 83.3594C894.458 94.2637 1067.15 166.531 1215.1 246.819C1361.06 326.031 1470.34 418.255 1496.13 525.277C1526.27 650.344 1538.5 791.989 1367.78 880.335C1194.89 969.798 913.843 975.57 667.514 954.062C452.561 935.294 287.267 857.392 141.549 773.268C3.84636 693.771 -107.669 603.559 -121.248 498.701C-135.929 385.337 -88.4296 267.616 65.7425 187.879C223.123 106.483 455.892 71.7735 681.821 83.3594Z" fill="#ECF7FF"/>
<path fill-rule="evenodd" clip-rule="evenodd" d="M1463.9 98.4694C1546.93 117.74 1592.43 169.205 1630.33 210.779C1659.92 243.241 1647.24 270.269 1647.99 300.421C1648.91 337.98 1683.32 384.923 1635.14 405.643C1578.56 429.975 1482.69 430.796 1387.52 412.439C1282.32 392.146 1176.07 354.027 1107.67 303.899C1037.62 252.565 992.403 189.467 1029.3 149.929C1063.19 113.609 1190.18 137.359 1272.14 127.655C1340.93 119.51 1381.11 79.2583 1463.9 98.4694Z" fill="#C2DEFB"/>
<path fill-rule="evenodd" clip-rule="evenodd" d="M-49.043 628.372C-121.553 614.521 -159.189 650.806 -222.88 656.398C-301.517 663.303 -434.448 619.244 -458.4 664.315C-482.005 708.735 -372.415 769.463 -310.348 820.994C-263.607 859.801 -215.928 900.93 -149.673 920.637C-87.0858 939.253 -39.0048 921.291 17.6677 918.559C93.5675 914.9 196.829 938.565 232.54 902.212C272.287 861.751 254.867 793.262 196.506 736.506C140.418 681.961 40.8709 645.546 -49.043 628.372Z" fill="#C2DEFB"/>
</svg>
