<svg width="887" height="907" viewBox="0 0 887 907" fill="none" xmlns="http://www.w3.org/2000/svg">
<path fill-rule="evenodd" clip-rule="evenodd" d="M257.715 666.446C314.125 659.136 353.976 572.9 407.844 532.802C474.351 483.295 573.225 505.294 603.932 408.731C634.196 313.563 558.618 249.146 519.983 180.164C490.887 128.215 461.583 72.2973 411.754 65.6052C364.685 59.2836 320.678 115.61 273.293 147.033C209.831 189.117 130.457 192.054 92.175 277.53C49.5673 372.665 47.2717 494.478 81.5819 575.086C114.555 652.552 187.767 675.512 257.715 666.446Z" fill="#D8E1FF"/>
<path fill-rule="evenodd" clip-rule="evenodd" d="M851.257 540.663C852.162 599.028 844.451 655.287 806.861 707.447C758.324 774.798 706.888 850.551 612.182 872.406C507.296 896.61 374.805 886.765 311.084 821.856C250.191 759.828 318.201 670.65 336.269 591.348C347.697 541.189 363.314 495.868 395.642 450.717C440.026 388.727 467.228 305.814 554.52 286.524C645.611 266.393 740.383 308.693 801.49 361.028C855.841 407.577 850.26 476.376 851.257 540.663Z" fill="#D8E1FF"/>
</svg>
