<svg width="18" height="17" viewBox="0 0 18 17" fill="none" xmlns="http://www.w3.org/2000/svg">
<path d="M6.32942 2.60986C7.18699 -0.0294557 10.9209 -0.0294561 11.7785 2.60986C12.162 3.7902 13.2619 4.58935 14.503 4.58935C17.2782 4.58935 18.432 8.14054 16.1869 9.77173C15.1828 10.5012 14.7627 11.7943 15.1462 12.9746C16.0038 15.6139 12.983 17.8087 10.7378 16.1775C9.73375 15.448 8.37416 15.448 7.3701 16.1775C5.12496 17.8087 2.10414 15.6139 2.96171 12.9746C3.34523 11.7943 2.92509 10.5012 1.92103 9.77173C-0.324108 8.14054 0.829742 4.58935 3.60489 4.58935C4.84597 4.58935 5.9459 3.7902 6.32942 2.60986Z" fill="#487BE2"/>
</svg>
