<svg width="44" height="42" viewBox="0 0 44 42" fill="none" xmlns="http://www.w3.org/2000/svg">
<path d="M19.2008 3.00577C20.0988 0.241836 24.0091 0.241829 24.9071 3.00576L27.8913 12.1902C28.2929 13.4262 29.4448 14.2631 30.7445 14.2631L40.4016 14.2631C43.3077 14.2631 44.516 17.982 42.1649 19.6902L34.3522 25.3664C33.3007 26.1304 32.8607 27.4845 33.2624 28.7205L36.2466 37.905C37.1446 40.6689 33.9812 42.9673 31.63 41.2591L23.8173 35.5828C22.7658 34.8188 21.3421 34.8188 20.2906 35.5828L12.4779 41.2591C10.1267 42.9673 6.9633 40.6689 7.86135 37.9049L10.8455 28.7205C11.2472 27.4845 10.8072 26.1304 9.75573 25.3664L1.943 19.6902C-0.408137 17.982 0.800196 14.2631 3.70637 14.2631L13.3634 14.2631C14.6631 14.2631 15.815 13.4262 16.2166 12.1902L19.2008 3.00577Z" fill="#AAC6FF"/>
</svg>
