<svg width="74" height="76" viewBox="0 0 74 76" fill="none" xmlns="http://www.w3.org/2000/svg">
<g clip-path="url(#paint0_diamond_293_602_clip_path)" data-figma-skip-parse="true"><g transform="matrix(0.000293415 0.0431941 -0.0408683 0.000277617 37.7066 39.8059)"><rect x="0" y="0" width="1116.2" height="1176.86" fill="url(#paint0_diamond_293_602)" opacity="1" shape-rendering="crispEdges"/><rect x="0" y="0" width="1116.2" height="1176.86" transform="scale(1 -1)" fill="url(#paint0_diamond_293_602)" opacity="1" shape-rendering="crispEdges"/><rect x="0" y="0" width="1116.2" height="1176.86" transform="scale(-1 1)" fill="url(#paint0_diamond_293_602)" opacity="1" shape-rendering="crispEdges"/><rect x="0" y="0" width="1116.2" height="1176.86" transform="scale(-1)" fill="url(#paint0_diamond_293_602)" opacity="1" shape-rendering="crispEdges"/></g></g><path d="M1.98266 39.8903C0.106154 39.1682 0.138238 36.1099 2.02908 35.4262C8.4801 33.0937 18.0611 28.9702 23.4225 23.5269C28.6494 18.2202 32.4727 9.01228 34.7483 2.27312C35.4276 0.26138 38.9119 0.279644 39.5716 2.29791C41.7739 9.03626 45.4976 18.2301 50.6814 23.5269C56.0592 29.022 65.6974 33.0705 72.3365 35.377C74.272 36.0495 74.3054 39.2388 72.384 39.9504C65.7343 42.4131 56.0481 46.7021 50.6814 52.3435C45.5795 57.7066 42.1588 66.6281 40.0403 74.0237C39.4109 76.2208 34.8955 76.2426 34.2471 74.051C32.0582 66.6524 28.5561 57.7181 23.4225 52.3435C18.0756 46.7456 8.44431 42.3768 1.98266 39.8903Z" data-figma-gradient-fill="{&#34;type&#34;:&#34;GRADIENT_DIAMOND&#34;,&#34;stops&#34;:[{&#34;color&#34;:{&#34;r&#34;:0.65882354974746704,&#34;g&#34;:0.31764706969261169,&#34;b&#34;:0.45098039507865906,&#34;a&#34;:1.0},&#34;position&#34;:0.0},{&#34;color&#34;:{&#34;r&#34;:0.85490196943283081,&#34;g&#34;:0.92941176891326904,&#34;b&#34;:0.99607843160629272,&#34;a&#34;:1.0},&#34;position&#34;:1.0}],&#34;stopsVar&#34;:[{&#34;color&#34;:{&#34;r&#34;:0.65882354974746704,&#34;g&#34;:0.31764706969261169,&#34;b&#34;:0.45098039507865906,&#34;a&#34;:1.0},&#34;position&#34;:0.0},{&#34;color&#34;:{&#34;r&#34;:0.85490196943283081,&#34;g&#34;:0.92941176891326904,&#34;b&#34;:0.99607843160629272,&#34;a&#34;:1.0},&#34;position&#34;:1.0}],&#34;transform&#34;:{&#34;m00&#34;:0.58682924509048462,&#34;m01&#34;:-81.736640930175781,&#34;m02&#34;:78.2814941406250,&#34;m10&#34;:86.388244628906250,&#34;m11&#34;:0.55523449182510376,&#34;m12&#34;:-3.6658580303192139},&#34;opacity&#34;:1.0,&#34;blendMode&#34;:&#34;NORMAL&#34;,&#34;visible&#34;:true}"/>
<defs>
<clipPath id="paint0_diamond_293_602_clip_path"><path d="M1.98266 39.8903C0.106154 39.1682 0.138238 36.1099 2.02908 35.4262C8.4801 33.0937 18.0611 28.9702 23.4225 23.5269C28.6494 18.2202 32.4727 9.01228 34.7483 2.27312C35.4276 0.26138 38.9119 0.279644 39.5716 2.29791C41.7739 9.03626 45.4976 18.2301 50.6814 23.5269C56.0592 29.022 65.6974 33.0705 72.3365 35.377C74.272 36.0495 74.3054 39.2388 72.384 39.9504C65.7343 42.4131 56.0481 46.7021 50.6814 52.3435C45.5795 57.7066 42.1588 66.6281 40.0403 74.0237C39.4109 76.2208 34.8955 76.2426 34.2471 74.051C32.0582 66.6524 28.5561 57.7181 23.4225 52.3435C18.0756 46.7456 8.44431 42.3768 1.98266 39.8903Z"/></clipPath><linearGradient id="paint0_diamond_293_602" x1="0" y1="0" x2="500" y2="500" gradientUnits="userSpaceOnUse">
<stop stop-color="#A85173"/>
<stop offset="1" stop-color="#DAEDFE"/>
</linearGradient>
</defs>
</svg>
