<svg width="82" height="86" viewBox="0 0 82 86" fill="none" xmlns="http://www.w3.org/2000/svg">
<g clip-path="url(#paint0_diamond_293_608_clip_path)" data-figma-skip-parse="true"><g transform="matrix(0.000323185 0.0448227 -0.0424092 0.000305784 41.6555 44.5545)"><rect x="0" y="0" width="1181.56" height="1245.74" fill="url(#paint0_diamond_293_608)" opacity="1" shape-rendering="crispEdges"/><rect x="0" y="0" width="1181.56" height="1245.74" transform="scale(1 -1)" fill="url(#paint0_diamond_293_608)" opacity="1" shape-rendering="crispEdges"/><rect x="0" y="0" width="1181.56" height="1245.74" transform="scale(-1 1)" fill="url(#paint0_diamond_293_608)" opacity="1" shape-rendering="crispEdges"/><rect x="0" y="0" width="1181.56" height="1245.74" transform="scale(-1)" fill="url(#paint0_diamond_293_608)" opacity="1" shape-rendering="crispEdges"/></g></g><path d="M1.63866 44.3923C-0.241843 43.6807 -0.209886 40.6448 1.68482 39.9719C8.78136 37.4516 19.8273 32.8119 25.9222 26.6239C31.8995 20.5554 36.2103 9.85512 38.677 2.37497C39.342 0.358456 42.7931 0.376895 43.4381 2.39988C45.8233 9.8804 50.0181 20.566 55.9467 26.6239C62.0676 32.8783 73.199 37.4312 80.5187 39.924C82.4583 40.5845 82.4926 43.7509 80.567 44.451C73.238 47.1152 62.0535 51.9448 55.9467 58.3641C50.0336 64.5798 46.1708 75.135 43.872 83.5057C43.2668 85.7096 38.8348 85.7312 38.21 83.5327C35.831 75.1605 31.8712 64.5923 25.9222 58.3641C19.8455 52.0021 8.74452 47.0813 1.63866 44.3923Z" data-figma-gradient-fill="{&#34;type&#34;:&#34;GRADIENT_DIAMOND&#34;,&#34;stops&#34;:[{&#34;color&#34;:{&#34;r&#34;:1.0,&#34;g&#34;:1.0,&#34;b&#34;:1.0,&#34;a&#34;:1.0},&#34;position&#34;:0.12166626006364822},{&#34;color&#34;:{&#34;r&#34;:0.85490196943283081,&#34;g&#34;:0.92941176891326904,&#34;b&#34;:0.99607843160629272,&#34;a&#34;:1.0},&#34;position&#34;:1.0}],&#34;stopsVar&#34;:[{&#34;color&#34;:{&#34;r&#34;:1.0,&#34;g&#34;:1.0,&#34;b&#34;:1.0,&#34;a&#34;:1.0},&#34;position&#34;:0.12166626006364822},{&#34;color&#34;:{&#34;r&#34;:0.85490196943283081,&#34;g&#34;:0.92941176891326904,&#34;b&#34;:0.99607843160629272,&#34;a&#34;:1.0},&#34;position&#34;:1.0}],&#34;transform&#34;:{&#34;m00&#34;:0.64636951684951782,&#34;m01&#34;:-84.818458557128906,&#34;m02&#34;:83.741546630859375,&#34;m10&#34;:89.645446777343750,&#34;m11&#34;:0.61156779527664185,&#34;m12&#34;:-0.57402014732360840},&#34;opacity&#34;:1.0,&#34;blendMode&#34;:&#34;NORMAL&#34;,&#34;visible&#34;:true}"/>
<defs>
<clipPath id="paint0_diamond_293_608_clip_path"><path d="M1.63866 44.3923C-0.241843 43.6807 -0.209886 40.6448 1.68482 39.9719C8.78136 37.4516 19.8273 32.8119 25.9222 26.6239C31.8995 20.5554 36.2103 9.85512 38.677 2.37497C39.342 0.358456 42.7931 0.376895 43.4381 2.39988C45.8233 9.8804 50.0181 20.566 55.9467 26.6239C62.0676 32.8783 73.199 37.4312 80.5187 39.924C82.4583 40.5845 82.4926 43.7509 80.567 44.451C73.238 47.1152 62.0535 51.9448 55.9467 58.3641C50.0336 64.5798 46.1708 75.135 43.872 83.5057C43.2668 85.7096 38.8348 85.7312 38.21 83.5327C35.831 75.1605 31.8712 64.5923 25.9222 58.3641C19.8455 52.0021 8.74452 47.0813 1.63866 44.3923Z"/></clipPath><linearGradient id="paint0_diamond_293_608" x1="0" y1="0" x2="500" y2="500" gradientUnits="userSpaceOnUse">
<stop offset="0.121666" stop-color="white"/>
<stop offset="1" stop-color="#DAEDFE"/>
</linearGradient>
</defs>
</svg>
