<svg width="74" height="76" viewBox="0 0 74 76" fill="none" xmlns="http://www.w3.org/2000/svg">
<path d="M2.03662 39.464C0.160109 38.7419 0.192193 35.6837 2.08304 35C8.53406 32.6675 18.1151 28.5439 23.4764 23.1006C28.7033 17.7939 32.5266 8.58601 34.8022 1.84685C35.4816 -0.164888 38.9659 -0.146624 39.6255 1.87165C41.8279 8.60999 45.5515 17.8038 50.7354 23.1006C56.1132 28.5957 65.7514 32.6442 72.3904 34.9508C74.3259 35.6232 74.3594 38.8125 72.438 39.5241C65.7882 41.9868 56.1021 46.2759 50.7354 51.9172C45.6334 57.2803 42.2127 66.2018 40.0942 73.5974C39.4649 75.7946 34.9495 75.8164 34.3011 73.6247C32.1121 66.2262 28.6101 57.2919 23.4764 51.9172C18.1295 46.3194 8.49827 41.9505 2.03662 39.464Z" fill="url(#paint0_radial_274_474)"/>
<defs>
<radialGradient id="paint0_radial_274_474" cx="0" cy="0" r="1" gradientUnits="userSpaceOnUse" gradientTransform="translate(37.7605 39.3796) rotate(47.2009) scale(34.0015 32.1707)">
<stop stop-color="#FFE5B6"/>
<stop offset="1" stop-color="#FFC65D"/>
</radialGradient>
</defs>
</svg>
